<svg version="1.1" id="Layer_1" xmlns="http://www.w3.org/2000/svg" xmlns:xlink="http://www.w3.org/1999/xlink" x="0px" y="0px"
	 width="100%" viewBox="0 0 512 512" enable-background="new 0 0 512 512" xml:space="preserve">
<rect height="512" width="512" fill="#FFFFFF" />
<path fill="#000000" opacity="1.000000" stroke="none" 
	d="
M185.703461,417.638367 
	C180.548584,432.997772 173.978333,447.390228 168.340240,462.145599 
	C167.458023,464.454529 166.295944,466.729919 164.864838,468.736694 
	C163.155487,471.133667 160.557800,471.858002 157.737259,470.859253 
	C155.108246,469.928284 153.826096,467.887726 153.694702,465.117523 
	C153.606644,463.260498 153.954941,461.527466 154.693558,459.782501 
	C164.293304,437.103668 173.544678,414.261108 181.631714,391.016968 
	C193.870758,355.838898 203.054581,319.866180 210.060608,283.192352 
	C218.792816,237.482727 217.637283,191.477951 217.702484,145.422653 
	C217.706711,142.431549 216.649017,141.040451 213.617554,141.327911 
	C213.122467,141.374878 212.618179,141.333252 212.118423,141.320999 
	C206.347427,141.179489 203.116837,138.880402 203.108643,134.911819 
	C203.100601,131.017181 206.401520,128.348541 212.015915,128.099533 
	C226.518295,127.456329 240.903259,129.658447 255.368927,130.144104 
	C262.522430,130.384247 269.674896,130.526047 276.820465,130.514435 
	C307.470154,130.464584 338.129883,129.701355 368.765900,130.273087 
	C392.929047,130.724045 417.083191,130.455231 441.238861,130.764008 
	C443.046387,130.787109 444.921631,130.959000 446.637848,131.481064 
	C449.643768,132.395447 451.348053,134.494263 451.245483,137.802856 
	C451.142242,141.133362 449.182312,143.043137 446.214172,143.841476 
	C444.481689,144.307480 442.589325,144.296585 440.768646,144.299057 
	C421.269775,144.325546 401.745453,144.953079 382.277039,144.181335 
	C335.644318,142.332748 289.000305,144.186554 242.373260,143.105698 
	C241.873474,143.094116 241.372726,143.110413 240.873550,143.088348 
	C231.220139,142.661667 231.220871,142.660873 231.219315,152.275543 
	C231.215851,173.774307 231.319748,195.273819 231.171127,216.771576 
	C231.065323,232.077026 228.127304,247.139587 227.104721,262.870178 
	C240.099411,258.160370 253.969437,259.465607 267.560150,258.185181 
	C275.661224,257.421997 283.870941,257.705933 292.031860,257.702789 
	C331.862366,257.687531 371.693542,257.616486 411.522797,257.853333 
	C419.969635,257.903534 428.430267,258.970642 436.845825,259.914581 
	C443.892944,260.705017 446.941040,264.934937 447.419128,272.053802 
	C448.493134,288.046509 439.924011,299.781494 430.112854,310.553619 
	C405.928986,337.106262 377.931915,359.378357 349.269012,380.837097 
	C348.212036,381.628418 347.240204,382.533417 345.939087,383.629425 
	C349.932739,387.639679 354.510895,390.586639 358.917633,393.695099 
	C379.862701,408.469452 400.823853,423.227142 422.380524,437.104126 
	C436.091522,445.930450 449.949158,454.528931 463.733917,463.240906 
	C466.551605,465.021698 469.407776,466.779785 471.447601,469.507690 
	C473.704376,472.525726 474.149353,475.640961 471.333588,478.533997 
	C468.716766,481.222656 465.591339,481.239288 462.713593,479.134155 
	C438.382629,461.335205 411.665253,447.207520 387.150055,429.638641 
	C370.923981,418.010223 354.401337,406.760529 338.124481,395.182220 
	C334.541290,392.633331 331.832520,392.442078 327.933105,395.026642 
	C312.407043,405.317413 296.457123,414.968964 280.939911,425.272552 
	C274.625549,429.465332 267.839996,433.171875 263.008453,439.431671 
	C260.681488,442.446503 257.156189,443.553467 253.713516,440.980530 
	C250.330170,438.451904 250.384338,435.161957 252.423813,431.660248 
	C255.380829,426.583099 260.114227,423.377136 264.693939,420.096100 
	C282.567841,407.290527 301.474731,396.068115 320.011200,384.278046 
	C320.276489,384.109314 320.443542,383.786163 320.858490,383.296844 
	C318.858887,379.982452 315.368866,378.198334 312.396545,376.024170 
	C291.016571,360.385468 270.171753,344.072479 250.248199,326.620331 
	C241.482376,318.941864 232.979385,310.915588 226.793945,300.835144 
	C225.555923,298.817535 224.484756,296.768433 224.771301,294.291626 
	C225.105484,291.403046 226.499741,289.211060 229.286316,288.245636 
	C232.168549,287.247040 234.755356,288.217224 236.299942,290.677368 
	C250.392807,313.124054 272.253754,327.401581 292.155823,343.680695 
	C303.613403,353.052551 315.702454,361.652252 327.504089,370.603729 
	C333.751648,375.342407 333.771118,375.378571 340.248169,370.829590 
	C351.022064,363.262787 361.274292,355.012909 371.425201,346.646545 
	C385.798004,334.800415 399.914062,322.652740 413.035004,309.406677 
	C419.136108,303.247345 424.784485,296.684998 429.435089,289.343292 
	C430.761108,287.249969 431.844910,284.950195 432.698181,282.620026 
	C435.710815,274.392944 434.283630,272.848175 425.637268,272.146118 
	C384.552948,268.810303 343.400513,270.503448 302.290039,270.621429 
	C281.886414,270.679993 261.391693,271.178345 241.021149,273.289825 
	C236.021423,273.808014 231.154739,277.028473 225.301224,273.284515 
	C217.073807,323.097626 204.520233,371.045532 185.703461,417.638367 
z"/>
<path fill="#000000" opacity="1.000000" stroke="none" 
	d="
M57.256454,156.179352 
	C73.439079,150.405609 88.931435,143.935974 104.372101,137.347031 
	C124.503487,128.756409 143.802475,118.696503 160.778275,104.652054 
	C162.467834,103.254234 164.222488,102.081993 166.386551,101.516068 
	C169.592911,100.677582 171.979492,101.840408 173.673065,104.464935 
	C175.325027,107.024963 174.931732,109.553688 172.972137,111.822754 
	C170.113525,115.132835 166.542206,117.608810 163.023911,120.128975 
	C148.227890,130.727386 132.663483,139.968719 115.715614,146.744156 
	C113.434586,147.656052 112.589836,148.828369 113.070663,151.660965 
	C116.012787,168.993301 118.110977,186.483871 121.521317,203.717697 
	C125.133766,221.972855 127.552490,240.397308 130.485443,258.742737 
	C133.470200,277.412109 136.262161,296.120178 138.536850,314.911591 
	C140.051880,327.427185 141.188568,339.990723 142.892242,352.492310 
	C144.526779,364.486633 145.207108,376.610779 146.318680,388.676758 
	C147.597427,402.557556 148.875595,416.438446 150.183105,430.316559 
	C150.615829,434.909637 148.379852,438.454559 144.600464,439.005341 
	C140.809952,439.557709 137.266953,436.479095 136.853958,431.595673 
	C136.406799,426.308319 136.305145,421.006073 135.745438,415.701752 
	C132.905029,388.783539 130.658997,361.800079 127.601387,334.908051 
	C124.261169,305.530701 119.578384,276.331512 115.166145,247.092422 
	C110.706284,217.537674 104.823776,188.226593 100.794914,158.614746 
	C100.282516,154.848679 98.995422,154.124512 95.615959,155.479004 
	C74.463486,163.956909 53.275440,172.346085 32.098228,180.762253 
	C30.706549,181.315323 29.312992,181.864655 27.910009,182.388138 
	C23.796659,183.922974 20.668873,182.699005 18.780054,178.796631 
	C17.206324,175.545227 19.003347,171.804871 23.138519,170.005417 
	C29.387918,167.285919 35.734650,164.788635 42.055630,162.235535 
	C46.993851,160.240967 51.955795,158.305115 57.256454,156.179352 
z"/>
</svg>