<svg width="500" height="196" fill="none" xmlns="http://www.w3.org/2000/svg"><path d="M143.672 65.41c-12.935-11.23-30.952-17.828-51.856-17.828C37.188 47.582 0 89.838 0 89.838l10.394 16.671s5.775.463 2.772-9.377c2.656-4.978 7.854-11.809 18.017-19.566v110.909c-4.389 1.273-10.163 3.589-6.237 7.525H55.09c3.927-3.936-2.31-6.367-6.12-7.525v-26.164s20.672 8.104 42.847 8.104c19.518 0 37.304-5.789 50.585-16.324 13.282-10.419 21.713-26.048 21.713-43.877-.116-17.482-7.623-33.574-20.442-44.803Zm-15.938 80.114c-9.124 9.03-22.406 14.819-37.766 14.703-17.093 0-31.53-3.358-41-7.988v-83.24c10.395-7.409 27.372-12.04 41-11.924 16.631 0 29.681 6.252 38.459 15.86 8.777 9.61 13.628 22.344 13.628 37.163-.116 14.356-5.197 26.28-14.321 35.426Zm62.827-97.826h-6.121c-2.772 0-4.966 2.2-4.966 4.978V166.13c0 2.779 2.194 4.978 4.966 4.978h6.121c2.772 0 4.966-2.199 4.966-4.978V52.676c0-2.779-2.194-4.978-4.966-4.978Zm160.187 0h-6.121c-2.772 0-4.966 2.2-4.966 4.978V166.13c0 2.779 2.194 4.978 4.966 4.978h6.121c2.772 0 4.966-2.199 4.966-4.978V52.676c0-2.779-2.194-4.978-4.966-4.978Zm144.134 0h-5.659c-4.504 0-5.775.578-7.738 4.63-1.964 4.052-46.428 92.154-46.428 92.154s-44.349-88.217-46.428-92.154c-1.963-4.052-3.233-4.63-7.737-4.63h-5.66c-4.157 0-6.467 1.852-4.042 6.599 2.426 4.746 57.053 112.297 57.053 112.297 1.386 2.779 4.042 4.399 6.93 4.399 2.887 0 5.428-1.62 6.929-4.399.116-.231 54.628-107.55 57.053-112.297 2.194-4.747-.116-6.6-4.273-6.6ZM302.357 166.826c2.31 3.01 3.927 4.167 8.431 4.167h9.239c5.89 0 3.696-2.662 2.079-4.746-4.042-5.441-44.349-56.728-44.349-56.728s41.693-51.634 45.851-57.075c1.617-2.2 3.695-4.746-2.079-4.746h-9.24c-4.504 0-6.121 1.157-8.43 4.167-2.31 3.01-36.265 44.804-36.265 44.804S233.64 54.875 231.33 51.865c-2.31-3.01-3.927-4.167-8.431-4.167h-9.239c-5.775 0-3.696 2.662-2.079 4.746 4.042 5.441 45.85 57.075 45.85 57.075s-41.462 51.287-45.619 56.728c-1.617 2.2-3.696 4.746 2.079 4.746h9.239c4.504 0 6.121-1.157 8.431-4.167 2.31-3.01 36.033-44.456 36.033-44.456s32.453 41.561 34.763 44.456ZM187.558 0c-3.695 0-6.698 1.273-9.123 3.705-2.426 2.43-3.696 5.44-3.696 9.146 0 3.704 1.27 6.714 3.696 9.146 2.425 2.43 5.428 3.704 9.123 3.704 3.696 0 6.699-1.273 9.124-3.704 2.426-2.432 3.696-5.442 3.696-9.146 0-3.705-1.27-6.715-3.696-9.146C194.257 1.273 191.139 0 187.558 0Zm160.187 0c-3.695 0-6.698 1.273-9.123 3.705-2.426 2.43-3.696 5.44-3.696 9.146 0 3.704 1.27 6.714 3.696 9.146 2.425 2.43 5.428 3.704 9.123 3.704 3.696 0 6.699-1.273 9.124-3.704 2.426-2.432 3.696-5.442 3.696-9.146 0-3.705-1.27-6.715-3.696-9.146C354.444 1.273 351.326 0 347.745 0Z" fill="#fff"/></svg>